<svg id="svg2" xmlns:rdf="http://www.w3.org/1999/02/22-rdf-syntax-ns#" xmlns="http://www.w3.org/2000/svg" height="100" viewBox="0 0 100 100" width="100" version="1.1" xmlns:cc="http://creativecommons.org/ns#" xmlns:dc="http://purl.org/dc/elements/1.1/">
 <g id="g4193" fill="#fe5a51">
  <g id="g4148">
   <path id="path4705" d="m49.716 39.593 35.284 0.021c-0.105 22.567-17.373 41.712-35.026 55.386"/>
   <path id="path4705-1" d="m50 39.617-35-0.003c0.105 22.567 17.341 41.712 34.994 55.386"/>
  </g>
  <circle id="path4684" cy="39" cx="50" r="35"/>
 </g>
 <g id="layer3">
  <circle id="path4684-2" cy="40" cx="50" r="27.5" fill="#fff"/>
 </g>
 <g id="layer4">
  <g id="layer1" transform="matrix(.1 0 0 .10164 25 -56.962)">
   <path id="path4158" fill="#191915" d="m444.53 941.94c-3.4202 0-7.0416 0.40238-10.462 1.006l-13.279-33.398-0.20119-0.40238v-0.40238l-0.20119-0.20119-1.2071-1.8107-0.20119-0.40238c-0.60357-0.60357-1.4083-1.2071-2.0119-1.6095h-0.60357c-0.60357-0.40238-1.2071-0.80476-1.8107-1.006h-0.60357c-0.80476-0.20119-1.8107-0.40238-2.6155-0.40238h-169.4v-35.812c0-2.6155-1.006-5.4321-3.0178-7.2428l-21.125-21.326c-4.225-4.0238-10.663-4.0238-14.888 0-4.0238 4.225-4.0238 10.864 0 14.888l18.107 17.906v100.8h-48.889l-34.605-94.559h16.296c5.8345 0 10.462-4.8286 10.462-10.462 0-5.8345-4.6274-10.462-10.462-10.462h-58.345c-5.8345 0-10.462 4.6274-10.462 10.462 0 5.6333 4.6274 10.462 10.462 10.462h19.717l7.8464 21.527-18.912 23.539c-10.473-6.26-22.343-9.48-34.616-9.48-37.019-0.2-67.6 28.97-69.411 65.79-2.0114 37.04 25.552 69.04 62.369 72.64 36.818 3.8226 70.014-22.131 75.647-58.546h217.49c3.219 0 6.2369-1.4083 8.2488-4.0238l44.463-55.528 6.6393 16.699c-23.137 14.888-31.788 44.463-20.521 69.411 11.468 24.948 39.433 37.824 65.789 29.977 26.356-7.6452 43.055-33.599 39.232-60.759-4.0238-27.161-27.362-47.28-54.724-47.28h-0.20119zm-294.74 30.581h-11.669c-2.2131-13.681-8.2488-26.356-17.705-36.415l11.065-13.681 18.308 50.096zm-42.451-19.918c4.6274 5.8345 8.0476 12.675 9.6571 19.918h-25.752l16.095-19.918zm-37.824 78.866c-20.119 0.2012-38.226-12.071-45.67-30.782-7.2428-18.912-2.2131-40.238 12.675-53.718s36.617-16.498 54.522-7.444l-29.575 37.019c-2.6155 3.0178-3.0178 7.444-1.4083 11.065 1.8107 3.6214 5.4321 5.8345 9.4559 5.8345h47.481c-5.0298 22.332-24.746 38.025-47.481 38.025zm375.02 0c-14.486 0-27.563-9.0535-32.392-22.734-4.8286-13.681-0.60357-28.971 10.663-38.226l12.071 30.782c2.0119 5.2309 8.0476 7.8464 13.48 5.8345 5.4321-2.2131 8.0476-8.2488 5.8345-13.681l-12.273-30.581h2.4143c12.675-0.40238 24.344 6.0357 30.782 16.9 6.4381 10.663 6.4381 24.143 0 35.007s-18.107 17.302-30.782 16.699"/>
  </g>
 </g>
</svg>
