<?xml version="1.0" encoding="UTF-8" standalone="no"?>
<svg
   xmlns:dc="http://purl.org/dc/elements/1.1/"
   xmlns:cc="http://creativecommons.org/ns#"
   xmlns:rdf="http://www.w3.org/1999/02/22-rdf-syntax-ns#"
   xmlns:svg="http://www.w3.org/2000/svg"
   xmlns="http://www.w3.org/2000/svg"
   xmlns:sodipodi="http://sodipodi.sourceforge.net/DTD/sodipodi-0.dtd"
   xmlns:inkscape="http://www.inkscape.org/namespaces/inkscape"
   id="svg2"
   height="100"
   width="100"
   version="1.1"
   viewBox="0 0 100 100"
   inkscape:version="0.91 r13725"
   sodipodi:docname="map_pin_combined.svg">
  <metadata
     id="metadata13">
    <rdf:RDF>
      <cc:Work
         rdf:about="">
        <dc:format>image/svg+xml</dc:format>
        <dc:type
           rdf:resource="http://purl.org/dc/dcmitype/StillImage" />
        <dc:title></dc:title>
      </cc:Work>
    </rdf:RDF>
  </metadata>
  <defs
     id="defs11" />
  <sodipodi:namedview
     pagecolor="#ffffff"
     bordercolor="#666666"
     borderopacity="1"
     objecttolerance="10"
     gridtolerance="10"
     guidetolerance="10"
     inkscape:pageopacity="0"
     inkscape:pageshadow="2"
     inkscape:window-width="1920"
     inkscape:window-height="1017"
     id="namedview9"
     showgrid="false"
     inkscape:zoom="2.36"
     inkscape:cx="50"
     inkscape:cy="50"
     inkscape:window-x="-8"
     inkscape:window-y="-8"
     inkscape:window-maximized="1"
     inkscape:current-layer="layer1" />
  <g
     inkscape:groupmode="layer"
     id="layer1"
     inkscape:label="pin"
     style="display:inline">
    <g
       id="layer2"
       style="fill:#ffffff">
      <g
         id="g4193"
         style="fill:#ffffff"
         transform="matrix(1.0989 0 0 1.0989 -4.9448 -4.3956)">
        <g
           id="g4148"
           style="fill:#ffffff">
          <path
             id="path4705"
             style="fill:#ffffff"
             d="m49.716 39.593 35.284 0.021c-0.105 22.567-17.373 41.712-35.026 55.386" />
          <path
             id="path4705-1"
             style="fill:#ffffff"
             d="m50 39.617-35-0.003c0.10508 22.567 17.341 41.712 34.994 55.386" />
        </g>
        <circle
           id="path4684"
           cx="50"
           cy="39"
           r="35"
           style="fill:#ffffff" />
      </g>
    </g>
  </g>
  <g
     inkscape:groupmode="layer"
     id="layer3"
     inkscape:label="icon"
     style="display:inline">
    <g
       id="g4155"
       transform="matrix(1.3,0,0,1.3,17.499479,6.5173896)">
      <g
         transform="translate(-1.3286,-6.6143)"
         id="layer2-0">
        <circle
           cy="31.614"
           cx="26.329"
           style="fill:#ffffff"
           r="25"
           id="path4724" />
      </g>
      <g
         transform="translate(-365.26,-344.07)"
         id="layer1-0">
        <g
           transform="matrix(0.089999,0,0,0.091475,367.76,282.7)"
           id="layer1-9">
          <path
             d="m 444.53,941.94 c -3.4202,0 -7.0416,0.40238 -10.462,1.006 l -13.279,-33.398 -0.20119,-0.40238 0,-0.40238 -0.20119,-0.20119 -1.2071,-1.8107 -0.20119,-0.40238 c -0.60357,-0.60357 -1.4083,-1.2071 -2.0119,-1.6095 l -0.60357,0 c -0.60357,-0.40238 -1.2071,-0.80476 -1.8107,-1.006 l -0.60357,0 c -0.80476,-0.20119 -1.8107,-0.40238 -2.6155,-0.40238 l -169.4,0 0,-35.812 c 0,-2.6155 -1.006,-5.4321 -3.0178,-7.2428 l -21.125,-21.326 c -4.225,-4.0238 -10.663,-4.0238 -14.888,0 -4.0238,4.225 -4.0238,10.864 0,14.888 l 18.107,17.906 0,100.8 -48.889,0 -34.605,-94.559 16.296,0 c 5.8345,0 10.462,-4.8286 10.462,-10.462 0,-5.8345 -4.6274,-10.462 -10.462,-10.462 l -58.345,0 c -5.8345,0 -10.462,4.6274 -10.462,10.462 0,5.6333 4.6274,10.462 10.462,10.462 l 19.717,0 7.8464,21.527 -18.912,23.539 c -10.473,-6.26 -22.343,-9.48 -34.616,-9.48 -37.019,-0.2 -67.6,28.97 -69.411,65.79 -2.0114,37.04001 25.552,69.04001 62.369,72.64001 36.818,3.8226 70.014,-22.131 75.647,-58.54601 l 217.49,0 c 3.219,0 6.2369,-1.4083 8.2488,-4.0238 l 44.463,-55.528 6.6393,16.699 c -23.137,14.888 -31.788,44.463 -20.521,69.41101 11.468,24.948 39.433,37.824 65.789,29.977 26.356,-7.6452 43.055,-33.599 39.232,-60.75901 -4.0238,-27.161 -27.362,-47.28 -54.724,-47.28 l -0.20119,0 z m -294.74,30.581 -11.669,0 c -2.2131,-13.681 -8.2488,-26.356 -17.705,-36.415 l 11.065,-13.681 18.308,50.096 z m -42.451,-19.918 c 4.6274,5.8345 8.0476,12.675 9.6571,19.918 l -25.752,0 16.095,-19.918 z m -37.824,78.866 c -20.119,0.2012 -38.226,-12.071 -45.67,-30.782 -7.2428,-18.912 -2.2131,-40.238 12.675,-53.718 14.8881,-13.48 36.617,-16.498 54.522,-7.444 l -29.575,37.019 c -2.6155,3.0178 -3.0178,7.444 -1.4083,11.065 1.8107,3.6214 5.4321,5.8345 9.4559,5.8345 l 47.481,0 c -5.0298,22.332 -24.746,38.025 -47.481,38.025 z m 375.02,0 c -14.486,0 -27.563,-9.0535 -32.392,-22.734 -4.8286,-13.681 -0.60357,-28.971 10.663,-38.226 l 12.071,30.782 c 2.0119,5.2309 8.0476,7.8464 13.48,5.8345 5.4321,-2.2131 8.0476,-8.2488 5.8345,-13.681 l -12.273,-30.581 2.4143,0 c 12.675,-0.40238 24.344,6.0357 30.782,16.9 6.4381,10.663 6.4381,24.143 0,35.007 -6.4381,10.864 -18.107,17.302 -30.782,16.699"
             style="fill:#191915"
             id="path4158"
             inkscape:connector-curvature="0" />
        </g>
      </g>
    </g>
  </g>
</svg>
